#!OML:ASF F:\VICON\USERDATA\INSTALL\rory3\rory3.ASF
:FULLY-SPECIFIED
:DEGREES
572
root 3.94956 17.4682 -1.73747 12.7884 -26.9927 -22.5057
lowerback 5.90383 1.39977 7.58029
upperback -0.336164 2.67893 11.5952
thorax -3.92431 1.2401 7.81329
lowerneck -2.38579 -10.6274 -17.3462
upperneck 28.807 -18.77 17.083
head 13.5007 -8.9244 7.02969
rclavicle -2.20651e-014 5.24792e-014
rhumerus -2.95135 -3.57737 -49.9539
rradius 79.7688
rwrist -21.6386
rhand -21.2289 24.5138
rfingers 7.12502
rthumb 5.15334 -5.40354
lclavicle -2.20651e-014 5.24792e-014
lhumerus -27.2077 23.795 0.980545
lradius 32.5629
lwrist -3.49175
lhand -11.8561 38.6854
lfingers 7.12502
lthumb 14.1957 68.1803
rfemur 25.3126 2.23482 15.5289
rtibia 41.6297
rfoot 31.3521 -10.5335
rtoes 25.5333
lfemur -44.9855 14.8946 -5.67812
ltibia 36.3518
lfoot 11.508 13.1078
ltoes 6.22396
573
root 3.86899 17.3307 -1.44502 11.7542 -26.5511 -22.3291
lowerback 5.76084 1.28949 7.51754
upperback -0.409085 2.52016 11.6979
thorax -3.91596 1.1651 7.98266
lowerneck -1.97494 -10.6746 -17.6421
upperneck 29.0965 -18.927 17.0296
head 13.6084 -9.05509 7.0654
rclavicle -4.96962e-015 -3.97569e-014
rhumerus -4.12369 -4.03158 -49.6503
rradius 79.3263
rwrist -21.7292
rhand -21.1909 24.5885
rfingers 7.12502
rthumb 5.18999 -5.32797
lclavicle -4.96962e-015 -3.97569e-014
lhumerus -26.8793 23.3925 0.672992
lradius 32.8026
lwrist -4.30953
lhand -12.173 37.3163
lfingers 7.12502
lthumb 13.8903 66.8324
rfemur 25.5349 2.49085 14.5376
rtibia 44.7523
rfoot 31.755 -8.12928
rtoes 19.2757
lfemur -45.1613 17.4283 -7.7946
ltibia 38.644
lfoot 10.6049 8.45938
ltoes 11.4842
574
root 3.78911 17.1754 -1.15248 10.8834 -26.1492 -22.3534
lowerback 5.53389 1.16554 7.64979
upperback -0.453783 2.33651 11.8164
thorax -3.81946 1.07279 8.06097
lowerneck -1.95174 -10.743 -17.6499
upperneck 29.5456 -19.0223 16.678
head 13.779 -9.12671 6.92169
rclavicle -2.11209e-014 3.02153e-014
rhumerus -5.42403 -4.42501 -49.3879
rradius 79.0208
rwrist -21.6599
rhand -21.4707 24.7875
rfingers 7.12502
rthumb 4.91982 -5.13541
lclavicle -2.11209e-014 3.02153e-014
lhumerus -26.6622 22.8998 0.441255
lradius 33.3379
lwrist -4.44731
lhand -12.6534 37.0277
lfingers 7.12502
lthumb 13.4273 66.5749
rfemur 25.698 3.05838 13.8075
rtibia 47.9368
rfoot 31.4207 -8.04204
rtoes 19.7452
lfemur -45.3683 19.834 -9.53084
ltibia 41.3795
lfoot 7.48434 5.80007
ltoes 16.7035
575
root 3.71003 17.0028 -0.876613 9.98197 -25.6301 -22.5408
lowerback 5.56715 0.979799 7.88214
upperback -0.523655 2.1214 11.9885
thorax -3.89474 0.960963 8.14516
lowerneck -1.90188 -10.8298 -17.6805
upperneck 30.0055 -19.1274 16.2619
head 13.9466 -9.2128 6.7525
rclavicle 4.19187e-014 2.70347e-014
rhumerus -6.90199 -4.80146 -49.1208
rradius 78.783
rwrist -21.4618
rhand -21.6054 25.0293
rfingers 7.12502
rthumb 4.78981 -4.89655
lclavicle 4.19187e-014 2.70347e-014
lhumerus -26.5544 22.0938 0.427389
lradius 34.144
lwrist -3.85418
lhand -13.6544 38.0924
lfingers 7.12502
lthumb 12.4624 67.7009
rfemur 26.0615 3.79039 13.4438
rtibia 51.0284
rfoot 30.5105 -9.60589
rtoes 23.9015
lfemur -45.4175 21.4097 -10.4564
ltibia 44.3559
lfoot 3.48777 4.58077
ltoes 20.5116
576
root 3.63596 16.8378 -0.615181 8.9421 -25.1543 -22.5219
lowerback 5.77858 0.83577 7.9162
upperback -0.550593 1.97271 12.075
thorax -4.03463 0.886739 8.23886
lowerneck -1.59675 -10.9195 -17.9456
upperneck 30.2158 -19.334 16.2424
head 14.0591 -9.35382 6.77554
rclavicle 3.3899e-014 1.11319e-013
rhumerus -8.36596 -5.68208 -49.0094
rradius 78.4382
rwrist -21.4018
rhand -20.9385 25.203
rfingers 7.12502
rthumb 5.43368 -4.70735
lclavicle 3.3899e-014 1.11319e-013
lhumerus -26.3257 22.0427 0.466056
lradius 34.8955
lwrist -3.74365
lhand -13.921 38.0504
lfingers 7.12502
lthumb 12.2053 67.6743
rfemur 26.2442 4.49182 12.9301
rtibia 54.0475
rfoot 30.0505 -10.8549
rtoes 27.0605
lfemur -45.1884 21.9007 -10.7965
ltibia 47.2765
lfoot -0.509973 4.30856
ltoes 21.4109
577
root 3.56698 16.6943 -0.359896 7.71052 -24.7969 -22.1919
lowerback 6.17239 0.73847 7.64844
upperback -0.565958 1.89322 12.0587
thorax -4.27714 0.854313 8.38312
lowerneck -1.26128 -11.0043 -18.1295
upperneck 30.4358 -19.5482 16.2141
head 14.161 -9.49215 6.78238
rclavicle -2.81405e-014 -1.11319e-014
rhumerus -10.0357 -6.8277 -49.0279
rradius 78.174
rwrist -21.229
rhand -20.4951 25.4018
rfingers 7.12502
rthumb 5.86179 -4.49715
lclavicle -2.81405e-014 -1.11319e-014
lhumerus -25.9427 22.4021 0.691331
lradius 35.6113
lwrist -3.8515
lhand -13.8441 37.5902
lfingers 7.12502
lthumb 12.2794 67.2097
rfemur 26.1871 5.23901 12.1835
rtibia 57.0576
rfoot 29.9068 -11.7711
rtoes 29.1761
lfemur -44.7229 21.7748 -10.952
ltibia 50.0179
lfoot -3.74392 4.94734
ltoes 21.3052
578
root 3.50535 16.5659 -0.109066 6.43289 -24.5136 -21.7644
lowerback 6.73329 0.668014 7.27592
upperback -0.642266 1.87434 12.0343
thorax -4.68876 0.855551 8.57727
lowerneck -0.886118 -11.0445 -18.0988
upperneck 30.8035 -19.6477 15.8802
head 14.2206 -9.58321 6.6542
rclavicle 1.00386e-014 7.63333e-014
rhumerus -11.8231 -8.16009 -49.1326
rradius 77.7379
rwrist -20.4484
rhand -20.2121 25.5654
rfingers 7.12502
rthumb 6.13508 -4.32572
lclavicle 1.00386e-014 7.63333e-014
lhumerus -25.5911 22.9012 1.17945
lradius 36.3566
lwrist -3.964
lhand -14.3907 38.356
lfingers 7.12502
lthumb 11.7523 68.0063
rfemur 25.8462 6.08117 11.3689
rtibia 60.102
rfoot 29.4689 -13.0401
rtoes 31.7483
lfemur -44.2361 21.7339 -11.1715
ltibia 52.6975
lfoot -6.19116 5.42403
ltoes 21.0479
579
root 3.45329 16.4431 0.130425 5.23863 -24.3131 -21.2423
lowerback 7.1436 0.638142 6.9536
upperback -0.592937 1.8636 11.8883
thorax -4.87299 0.85913 8.59888
lowerneck -0.607218 -11.0795 -17.9647
upperneck 31.1466 -19.7783 15.6964
head 14.3064 -9.65819 6.56195
rclavicle 2.37548e-014 -1.90833e-014
rhumerus -13.4505 -9.90847 -49.4433
rradius 77.0736
rwrist -19.4615
rhand -19.4231 25.6036
rfingers 7.12502
rthumb 6.89672 -4.26405
lclavicle 2.37548e-014 -1.90833e-014
lhumerus -25.3262 23.8035 1.75156
lradius 37.2882
lwrist -4.19984
lhand -15.1067 39.3731
lfingers 7.12502
lthumb 11.0619 69.0616
rfemur 25.0171 6.9423 10.3938
rtibia 63.24
rfoot 29.1506 -13.4587
rtoes 33.8595
lfemur -43.968 21.8435 -11.4934
ltibia 55.439
lfoot -8.09189 5.36054
ltoes 20.9885
580
root 3.40591 16.311 0.353904 4.11493 -24.2523 -20.5926
lowerback 7.29302 0.625242 6.63116
upperback -0.340771 1.80051 11.6345
thorax -4.68017 0.834285 8.49484
lowerneck -0.594981 -11.1687 -17.7066
upperneck 31.4667 -19.976 15.572
head 14.4486 -9.72585 6.44378
rclavicle -6.78353e-014 1.11319e-013
rhumerus -15.0501 -11.6262 -49.8534
rradius 76.4979
rwrist -18.7157
rhand -19.1046 25.7537
rfingers 7.12502
rthumb 7.20422 -4.10368
lclavicle -6.78353e-014 1.11319e-013
lhumerus -25.1327 25.1912 2.43435
lradius 38.3258
lwrist -4.3659
lhand -15.8009 39.8464
lfingers 7.12502
lthumb 10.3922 69.5696
rfemur 23.7712 7.8644 9.23874
rtibia 66.4473
rfoot 28.8985 -13.5745
rtoes 34.1645
lfemur -43.8265 21.8105 -11.7816
ltibia 58.1656
lfoot -9.77206 5.11888
ltoes 21.1159
581
root 3.36058 16.1784 0.56148 2.93021 -24.2137 -19.7081
lowerback 7.53752 0.588354 6.03782
upperback -0.1008 1.6977 11.3984
thorax -4.55983 0.796154 8.57543
lowerneck -0.514543 -11.2328 -17.3632
upperneck 31.7742 -20.055 15.1882
head 14.4892 -9.75609 6.22593
rclavicle 6.19711e-014 -9.06458e-014
rhumerus -16.761 -13.0447 -50.1006
rradius 75.898
rwrist -18.244
rhand -19.0749 26.0617
rfingers 7.12502
rthumb 7.23283 -3.79468
lclavicle 6.19711e-014 -9.06458e-014
lhumerus -25.1691 26.9455 3.32899
lradius 39.3823
lwrist -4.43255
lhand -16.3133 40.065
lfingers 7.12502
lthumb 9.8979 69.8124
rfemur 22.1373 8.74483 7.83563
rtibia 69.6404
rfoot 28.5636 -13.7969
rtoes 28.7539
lfemur -43.5238 21.6158 -12.2059
ltibia 60.628
lfoot -11.2672 4.77009
ltoes 20.2703
582
root 3.3208 16.0682 0.761034 1.60871 -24.2643 -18.6326
lowerback 8.04421 0.600457 5.31351
upperback 0.0854817 1.68672 11.1064
thorax -4.65721 0.80663 8.66439
lowerneck -0.205835 -11.2228 -17.0388
upperneck 32.039 -20.04 14.8052
head 14.4401 -9.76227 6.04453
rclavicle -6.70898e-015 -3.33958e-014
rhumerus -18.6856 -14.4253 -50.2145
rradius 75.0637
rwrist -17.7338
rhand -19.0155 26.3977
rfingers 7.12502
rthumb 7.29023 -3.45668
lclavicle -6.70898e-015 -3.33958e-014
lhumerus -25.3488 28.5118 4.49149
lradius 40.6491
lwrist -4.19883
lhand -16.7205 40.5281
lfingers 7.12502
lthumb 9.50507 70.2937
rfemur 20.1657 9.68128 6.30493
rtibia 72.6679
rfoot 28.0564 -13.8278
rtoes 31.771
lfemur -42.8159 21.4462 -12.7795
ltibia 62.6467
lfoot -12.6944 4.47125
ltoes 18.7309
